<mxfile host="app.diagrams.net" agent="Mozilla/5.0 (Windows NT 10.0; Win64; x64) AppleWebKit/537.36 (KHTML, like Gecko) Chrome/137.0.0.0 Safari/537.36" version="27.2.0">
  <diagram name="Page-1" id="hNkkaeRDQVj5U460hjeP">
    <mxGraphModel dx="786" dy="451" grid="1" gridSize="10" guides="1" tooltips="1" connect="1" arrows="1" fold="1" page="1" pageScale="1" pageWidth="827" pageHeight="1169" math="0" shadow="0">
      <root>
        <mxCell id="0" />
        <mxCell id="1" parent="0" />
        <mxCell id="Da83k-IpPBflKszSxnDF-3" value="" style="edgeStyle=orthogonalEdgeStyle;rounded=0;orthogonalLoop=1;jettySize=auto;html=1;" edge="1" parent="1" source="Da83k-IpPBflKszSxnDF-1" target="Da83k-IpPBflKszSxnDF-2">
          <mxGeometry relative="1" as="geometry" />
        </mxCell>
        <mxCell id="Da83k-IpPBflKszSxnDF-1" value="Daily CSV from Plant&amp;nbsp;" style="rounded=1;whiteSpace=wrap;html=1;" vertex="1" parent="1">
          <mxGeometry x="300" y="230" width="160" height="60" as="geometry" />
        </mxCell>
        <mxCell id="Da83k-IpPBflKszSxnDF-5" value="" style="edgeStyle=orthogonalEdgeStyle;rounded=0;orthogonalLoop=1;jettySize=auto;html=1;" edge="1" parent="1" source="Da83k-IpPBflKszSxnDF-2" target="Da83k-IpPBflKszSxnDF-4">
          <mxGeometry relative="1" as="geometry" />
        </mxCell>
        <mxCell id="Da83k-IpPBflKszSxnDF-2" value="&lt;div&gt;Import → Staging Table&lt;span style=&quot;background-color: transparent; color: light-dark(rgb(0, 0, 0), rgb(255, 255, 255));&quot;&gt;&amp;nbsp; [production_data_staging]&lt;/span&gt;&lt;/div&gt;" style="whiteSpace=wrap;html=1;rounded=1;" vertex="1" parent="1">
          <mxGeometry x="270" y="370" width="220" height="60" as="geometry" />
        </mxCell>
        <mxCell id="Da83k-IpPBflKszSxnDF-7" value="" style="edgeStyle=orthogonalEdgeStyle;rounded=0;orthogonalLoop=1;jettySize=auto;html=1;" edge="1" parent="1" source="Da83k-IpPBflKszSxnDF-4" target="Da83k-IpPBflKszSxnDF-6">
          <mxGeometry relative="1" as="geometry" />
        </mxCell>
        <mxCell id="Da83k-IpPBflKszSxnDF-4" value="&lt;div&gt;MERGE Into Master&lt;br&gt;&lt;span style=&quot;background-color: transparent; color: light-dark(rgb(0, 0, 0), rgb(255, 255, 255));&quot;&gt;[production_data]&lt;/span&gt;&lt;/div&gt;" style="whiteSpace=wrap;html=1;rounded=1;" vertex="1" parent="1">
          <mxGeometry x="270" y="510" width="220" height="60" as="geometry" />
        </mxCell>
        <mxCell id="Da83k-IpPBflKszSxnDF-9" value="" style="edgeStyle=orthogonalEdgeStyle;rounded=0;orthogonalLoop=1;jettySize=auto;html=1;" edge="1" parent="1" source="Da83k-IpPBflKszSxnDF-6" target="Da83k-IpPBflKszSxnDF-8">
          <mxGeometry relative="1" as="geometry" />
        </mxCell>
        <mxCell id="Da83k-IpPBflKszSxnDF-6" value="&lt;div&gt;Log Merged Rows →&lt;br&gt;&lt;span style=&quot;background-color: transparent; color: light-dark(rgb(0, 0, 0), rgb(255, 255, 255));&quot;&gt;[merge_log]&lt;/span&gt;&lt;/div&gt;" style="whiteSpace=wrap;html=1;rounded=1;" vertex="1" parent="1">
          <mxGeometry x="270" y="650" width="220" height="60" as="geometry" />
        </mxCell>
        <mxCell id="Da83k-IpPBflKszSxnDF-11" value="" style="edgeStyle=orthogonalEdgeStyle;rounded=0;orthogonalLoop=1;jettySize=auto;html=1;" edge="1" parent="1" source="Da83k-IpPBflKszSxnDF-8" target="Da83k-IpPBflKszSxnDF-10">
          <mxGeometry relative="1" as="geometry" />
        </mxCell>
        <mxCell id="Da83k-IpPBflKszSxnDF-8" value="SQL Views (Pre-Agg Data)&lt;br&gt;&lt;div style=&quot;text-align: left;&quot;&gt;&lt;span style=&quot;background-color: transparent; color: light-dark(rgb(0, 0, 0), rgb(255, 255, 255));&quot;&gt;→ daily_yield&lt;/span&gt;&lt;br&gt;&lt;span style=&quot;background-color: transparent; color: light-dark(rgb(0, 0, 0), rgb(255, 255, 255));&quot;&gt;→ high_downtime&lt;/span&gt;&lt;/div&gt;" style="whiteSpace=wrap;html=1;rounded=1;" vertex="1" parent="1">
          <mxGeometry x="270" y="790" width="220" height="120" as="geometry" />
        </mxCell>
        <mxCell id="Da83k-IpPBflKszSxnDF-10" value="&lt;div&gt;Power BI Dashboard&amp;nbsp; &amp;nbsp; &amp;nbsp;&lt;span style=&quot;background-color: transparent; color: light-dark(rgb(0, 0, 0), rgb(255, 255, 255));&quot;&gt;&amp;nbsp;KPI cards, Charts, Table&lt;/span&gt;&lt;/div&gt;" style="whiteSpace=wrap;html=1;rounded=1;" vertex="1" parent="1">
          <mxGeometry x="270" y="1020" width="220" height="60" as="geometry" />
        </mxCell>
        <mxCell id="Da83k-IpPBflKszSxnDF-13" value="&lt;font style=&quot;font-size: 20px;&quot;&gt;&lt;b style=&quot;&quot;&gt;&lt;font style=&quot;color: light-dark(rgb(51, 51, 255), rgb(168, 168, 255));&quot;&gt;SQL - Prod_Data_Project&lt;/font&gt;&lt;br&gt;&lt;font style=&quot;color: rgb(255, 0, 0);&quot;&gt;FLOWCHART&lt;/font&gt;&lt;/b&gt;&lt;/font&gt;" style="ellipse;shape=cloud;whiteSpace=wrap;html=1;align=center;" vertex="1" parent="1">
          <mxGeometry x="202.5" y="60" width="355" height="140" as="geometry" />
        </mxCell>
      </root>
    </mxGraphModel>
  </diagram>
</mxfile>
